<?xml version="1.0" encoding="UTF-8"?>
<svg width="24px" height="24px" viewBox="0 0 24 24" version="1.1" xmlns="http://www.w3.org/2000/svg" xmlns:xlink="http://www.w3.org/1999/xlink">
    <!-- Generator: sketchtool 63 (101010) - https://sketch.com -->
    <title>23C33F7A-FA0A-4DF6-A41A-CD6960925B09</title>
    <desc>Created with sketchtool.</desc>
    <g id="Design" stroke="none" stroke-width="1" fill="none" fill-rule="evenodd">
        <g id="146_Manage-MDO" transform="translate(-589.000000, -478.000000)">
            <rect fill="#FAFAFA" x="0" y="0" width="1366" height="1024"></rect>
            <g id="Group" transform="translate(33.000000, 484.000000)"></g>
            <rect id="Rectangle" fill-opacity="0.56" fill="#252525" x="0" y="0" width="1366" height="1024"></rect>
            <g id="Popup" transform="translate(333.000000, 289.000000)">
                <rect id="Rectangle" fill="#FFFFFF" x="0" y="0" width="700" height="447" rx="8"></rect>
                <g id="Group-6" transform="translate(24.000000, 100.000000)" fill="#B7B7B7" fill-rule="nonzero">
                    <g id="Group-2">
                        <g id="Stacked-Group">
                            <g transform="translate(232.000000, 2.000000)" id="Stacked-Group-Copy-6">
                                <g transform="translate(0.000000, 87.000000)">
                                    <g id="Icons/ic_store">
                                        <g id="004-clerk-with-tie" transform="translate(3.000000, 2.000000)">
                                            <path d="M13.806758,7.43388128 C13.4959817,8.62210046 12.7707763,8.88383562 12.3838356,8.93634703 C12.1454795,9.41287671 11.6215525,10.386758 11.0974429,10.8760731 C10.8879452,11.0715982 10.6157078,11.236621 10.2883105,11.3665753 C9.87031963,11.5324201 9.42885845,11.6165297 8.97634703,11.6165297 C8.52383562,11.6165297 8.08237443,11.5324201 7.66438356,11.3665753 C7.33707763,11.2367123 7.06474886,11.0716895 6.85525114,10.8760731 C6.33105023,10.3868493 5.80712329,9.41287671 5.56876712,8.93634703 C5.18191781,8.88383562 4.45671233,8.62219178 4.14593607,7.43388128 C3.97972603,6.79844749 4.02228311,6.28045662 4.27251142,5.89424658 C4.38310502,5.72356164 4.51716895,5.60730594 4.64200913,5.52858447 C4.64237443,5.40173516 4.64767123,5.24292237 4.66237443,5.06228311 C4.43762557,4.74995434 4.13205479,4.07607306 4.51050228,2.9852968 C4.91050228,1.83214612 5.81488584,1.65406393 6.25141553,1.63863014 C6.39899543,1.36429224 6.67780822,0.974794521 7.18410959,0.616712329 C7.74611872,0.218995434 8.48,0 9.25050228,0 C10.1986301,0 11.1526941,0.33369863 12.0094977,0.965022831 C13.3986301,1.98858447 13.2796347,4.25908676 13.2455708,4.6713242 C13.2959817,5.01689498 13.3099543,5.316621 13.3105936,5.52849315 C13.4354338,5.60721461 13.5694977,5.72347032 13.6800913,5.89415525 C13.9303196,6.28045662 13.9728767,6.79835616 13.806758,7.43388128 Z M17.8694064,16.2821918 L17.8694064,19.5051142 C17.8694064,19.7572603 17.6649315,19.9617352 17.4127854,19.9617352 L0.539817352,19.9617352 C0.287671233,19.9617352 0.083196347,19.7572603 0.083196347,19.5051142 L0.083196347,16.2821918 C0.083196347,14.9618265 0.875342466,13.7917808 2.10127854,13.3013699 L6.09351598,11.7044749 C6.20840183,11.6586301 6.3369863,11.6610959 6.44995434,11.7118721 C6.56283105,11.7624658 6.65041096,11.8568037 6.69242009,11.9731507 L7.69607306,14.7478539 L7.89479452,14.1765297 L7.57863014,13.403653 C7.52109589,13.2628311 7.5373516,13.1025571 7.62219178,12.9762557 C7.70703196,12.8499543 7.84913242,12.7741553 8.00127854,12.7741553 L9.95141553,12.7741553 C10.1035616,12.7741553 10.2457534,12.8499543 10.3305023,12.9762557 C10.4153425,13.1025571 10.4315982,13.2628311 10.3740639,13.403653 L10.0578995,14.1765297 L10.256621,14.7478539 L11.260274,11.9731507 C11.3022831,11.8568037 11.389863,11.7624658 11.5027397,11.7118721 C11.6157078,11.6611872 11.7443836,11.6587215 11.8591781,11.7044749 L15.8514155,13.3013699 C17.0773516,13.7917808 17.8694064,14.9618265 17.8694064,16.2821918 Z M15.4387215,16.6326027 C15.4387215,16.3804566 15.2342466,16.1759817 14.9821005,16.1759817 L11.916347,16.1759817 C11.6642009,16.1759817 11.459726,16.3804566 11.459726,16.6326027 L11.459726,18.056347 C11.459726,18.3084932 11.6642009,18.512968 11.916347,18.512968 L14.9821005,18.512968 C15.2342466,18.512968 15.4387215,18.3084932 15.4387215,18.056347 L15.4387215,16.6326027 Z" id="Shape"></path>
                                        </g>
                                    </g>
                                </g>
                            </g>
                        </g>
                    </g>
                </g>
            </g>
        </g>
    </g>
</svg>