<?xml version="1.0" encoding="UTF-8"?>
<svg width="20px" height="20px" viewBox="0 0 20 20" version="1.1" xmlns="http://www.w3.org/2000/svg" xmlns:xlink="http://www.w3.org/1999/xlink">
    <!-- Generator: sketchtool 63 (101010) - https://sketch.com -->
    <title>D7550F9C-EBF8-4E64-B56E-C4D76C9BCFA9</title>
    <desc>Created with sketchtool.</desc>
    <g id="Design" stroke="none" stroke-width="1" fill="none" fill-rule="evenodd">
        <g id="146_Manage-MDO" transform="translate(-873.000000, -674.000000)">
            <rect fill="#FAFAFA" x="0" y="0" width="1366" height="1024"></rect>
            <g id="Data-Table" transform="translate(30.000000, 612.000000)">
                <rect id="Rectangle" stroke="#F2F2F2" fill="#FFFFFF" x="0.5" y="0.5" width="1304" height="821" rx="8"></rect>
                <g id="Table-Header" transform="translate(17.000000, 25.000000)" stroke="#EAEAEA" stroke-dasharray="2,4" stroke-linecap="square">
                    <g id="Dividers/Horizontal-Light-Copy-6" transform="translate(1.000000, 41.510154)">
                        <line x1="0.938262464" y1="0.700416667" x2="1272.43844" y2="0.700416667" id="Line-3"></line>
                    </g>
                </g>
            </g>
            <rect id="Rectangle" fill-opacity="0.56" fill="#252525" x="0" y="0" width="1366" height="1024"></rect>
            <g id="Popup" transform="translate(333.000000, 289.000000)">
                <rect id="Rectangle" fill="#FFFFFF" x="0" y="0" width="700" height="447" rx="8"></rect>
                <g id="Stacked-Group-2" transform="translate(516.000000, 375.000000)">
                    <g id="CTA/Main/With-Icon-Copy">
                        <g id="Padding-Group-2">
                            <rect id="Rectangle" stroke="#E2136E" fill="#FFFFFF" fill-rule="nonzero" x="0" y="0" width="161" height="40" rx="4"></rect>
                            <g id="Stacked-Group" transform="translate(24.000000, 10.000000)" fill="#E2136E">
                                <g id="Icons/ic_dashboard">
                                    <path d="M12.1484375,13.828125 L16.015625,10 L12.1484375,6.171875 L13.3203125,5 L18.3203125,10 L13.3203125,15 L12.1484375,13.828125 Z M7.8515625,13.828125 L6.6796875,15 L1.6796875,10 L6.6796875,5 L7.8515625,6.171875 L3.984375,10 L7.8515625,13.828125 Z" id="c"></path>
                                </g>
                            </g>
                        </g>
                    </g>
                </g>
            </g>
        </g>
    </g>
</svg>